<svg xmlns="http://www.w3.org/2000/svg" xmlns:xlink="http://www.w3.org/1999/xlink" version="1.1" width="256" height="256" viewBox="0 0 256 256" xml:space="preserve">

<defs>
</defs>
<g style="stroke: none; stroke-width: 0; stroke-dasharray: none; stroke-linecap: butt; stroke-linejoin: miter; stroke-miterlimit: 10; fill: none; fill-rule: nonzero; opacity: 1;" transform="translate(1.4065934065934016 1.4065934065934016) scale(2.81 2.81)" >
	<path d="M 5.573 51.908 l -1.559 -1.254 c 3.062 -3.805 3.062 -7.504 0 -11.309 l 1.559 -1.254 C 9.261 42.676 9.261 47.324 5.573 51.908 z" style="stroke: none; stroke-width: 1; stroke-dasharray: none; stroke-linecap: butt; stroke-linejoin: miter; stroke-miterlimit: 10; fill: rgb(0,0,0); fill-rule: nonzero; opacity: 1;" transform=" matrix(1 0 0 1 0 0) " stroke-linecap="round" />
	<path d="M 68.26 72.881 c -0.17 0 -0.34 -0.043 -0.493 -0.13 l -5.922 -3.359 l -5.921 3.359 c -0.308 0.176 -0.688 0.174 -0.996 -0.006 s -0.497 -0.509 -0.497 -0.864 V 45 c 0 -0.552 0.447 -1 1 -1 H 68.26 c 0.553 0 1 0.448 1 1 v 26.881 c 0 0.355 -0.189 0.685 -0.497 0.864 C 68.607 72.836 68.434 72.881 68.26 72.881 z M 61.845 67.242 c 0.17 0 0.341 0.043 0.493 0.13 l 4.922 2.792 V 46 H 56.431 v 24.164 l 4.921 -2.792 C 61.504 67.285 61.675 67.242 61.845 67.242 z" style="stroke: none; stroke-width: 1; stroke-dasharray: none; stroke-linecap: butt; stroke-linejoin: miter; stroke-miterlimit: 10; fill: rgb(0,0,0); fill-rule: nonzero; opacity: 1;" transform=" matrix(1 0 0 1 0 0) " stroke-linecap="round" />
	<path d="M 72.854 46 H 37.052 c -0.552 0 -1 -0.448 -1 -1 s 0.448 -1 1 -1 h 35.802 c 0.553 0 1 0.448 1 1 S 73.406 46 72.854 46 z" style="stroke: none; stroke-width: 1; stroke-dasharray: none; stroke-linecap: butt; stroke-linejoin: miter; stroke-miterlimit: 10; fill: rgb(0,0,0); fill-rule: nonzero; opacity: 1;" transform=" matrix(1 0 0 1 0 0) " stroke-linecap="round" />
	<path d="M 85.206 32.13 H 14.87 C 6.67 32.13 0 25.46 0 17.261 s 6.67 -14.87 14.87 -14.87 h 70.336 C 87.85 2.391 90 4.542 90 7.185 s -2.15 4.794 -4.794 4.794 H 14.87 c -2.913 0 -5.282 2.369 -5.282 5.282 s 2.369 5.282 5.282 5.282 h 70.336 c 2.644 0 4.794 2.15 4.794 4.794 S 87.85 32.13 85.206 32.13 z M 14.87 4.391 C 7.773 4.391 2 10.165 2 17.261 s 5.773 12.87 12.87 12.87 h 70.336 c 1.541 0 2.794 -1.253 2.794 -2.794 s -1.253 -2.794 -2.794 -2.794 H 14.87 c -4.015 0 -7.282 -3.267 -7.282 -7.282 s 3.267 -7.282 7.282 -7.282 h 70.336 C 86.747 9.979 88 8.726 88 7.185 s -1.253 -2.794 -2.794 -2.794 H 14.87 z" style="stroke: none; stroke-width: 1; stroke-dasharray: none; stroke-linecap: butt; stroke-linejoin: miter; stroke-miterlimit: 10; fill: rgb(0,0,0); fill-rule: nonzero; opacity: 1;" transform=" matrix(1 0 0 1 0 0) " stroke-linecap="round" />
	<path d="M 84.427 24.169 c -3.688 -4.584 -3.688 -9.233 0 -13.817 l 1.559 1.254 c -3.062 3.805 -3.062 7.504 0 11.31 L 84.427 24.169 z" style="stroke: none; stroke-width: 1; stroke-dasharray: none; stroke-linecap: butt; stroke-linejoin: miter; stroke-miterlimit: 10; fill: rgb(0,0,0); fill-rule: nonzero; opacity: 1;" transform=" matrix(1 0 0 1 0 0) " stroke-linecap="round" />
	<path d="M 85.206 87.608 H 14.87 C 6.67 87.608 0 80.938 0 72.739 s 6.67 -14.87 14.87 -14.87 h 40.561 v 2 H 14.87 C 7.773 59.869 2 65.643 2 72.739 c 0 7.096 5.773 12.869 12.87 12.869 h 70.336 c 1.541 0 2.794 -1.253 2.794 -2.794 s -1.253 -2.794 -2.794 -2.794 H 14.87 c -4.015 0 -7.282 -3.267 -7.282 -7.281 s 3.267 -7.281 7.282 -7.281 h 40.561 v 2 H 14.87 c -2.913 0 -5.282 2.369 -5.282 5.281 s 2.369 5.281 5.282 5.281 h 70.336 c 2.644 0 4.794 2.15 4.794 4.794 S 87.85 87.608 85.206 87.608 z" style="stroke: none; stroke-width: 1; stroke-dasharray: none; stroke-linecap: butt; stroke-linejoin: miter; stroke-miterlimit: 10; fill: rgb(0,0,0); fill-rule: nonzero; opacity: 1;" transform=" matrix(1 0 0 1 0 0) " stroke-linecap="round" />
	<path d="M 85.206 67.458 H 68.26 v -2 h 16.946 c 1.541 0 2.794 -1.253 2.794 -2.794 s -1.253 -2.795 -2.794 -2.795 H 68.26 v -2 h 16.946 c 2.644 0 4.794 2.151 4.794 4.795 S 87.85 67.458 85.206 67.458 z" style="stroke: none; stroke-width: 1; stroke-dasharray: none; stroke-linecap: butt; stroke-linejoin: miter; stroke-miterlimit: 10; fill: rgb(0,0,0); fill-rule: nonzero; opacity: 1;" transform=" matrix(1 0 0 1 0 0) " stroke-linecap="round" />
	<path d="M 84.427 79.647 c -3.688 -4.584 -3.688 -9.232 0 -13.816 l 1.559 1.254 c -3.062 3.805 -3.062 7.504 0 11.309 L 84.427 79.647 z" style="stroke: none; stroke-width: 1; stroke-dasharray: none; stroke-linecap: butt; stroke-linejoin: miter; stroke-miterlimit: 10; fill: rgb(0,0,0); fill-rule: nonzero; opacity: 1;" transform=" matrix(1 0 0 1 0 0) " stroke-linecap="round" />
	<path d="M 55.431 59.869 H 4.794 C 2.15 59.869 0 57.719 0 55.075 s 2.15 -4.794 4.794 -4.794 h 50.637 v 2 H 4.794 C 3.253 52.281 2 53.534 2 55.075 s 1.253 2.794 2.794 2.794 h 50.637 V 59.869 z" style="stroke: none; stroke-width: 1; stroke-dasharray: none; stroke-linecap: butt; stroke-linejoin: miter; stroke-miterlimit: 10; fill: rgb(0,0,0); fill-rule: nonzero; opacity: 1;" transform=" matrix(1 0 0 1 0 0) " stroke-linecap="round" />
	<path d="M 75.131 59.869 H 68.26 v -2 h 6.871 C 82.227 57.869 88 52.096 88 45 c 0 -7.096 -5.773 -12.87 -12.869 -12.87 H 4.794 C 3.253 32.13 2 33.384 2 34.924 s 1.253 2.794 2.794 2.794 h 70.337 c 4.015 0 7.281 3.267 7.281 7.282 c 0 4.015 -3.267 7.281 -7.281 7.281 H 68.26 v -2 h 6.871 c 2.912 0 5.281 -2.369 5.281 -5.281 c 0 -2.913 -2.369 -5.282 -5.281 -5.282 H 4.794 C 2.15 39.718 0 37.568 0 34.924 s 2.15 -4.794 4.794 -4.794 h 70.337 C 83.33 30.13 90 36.801 90 45 S 83.33 59.869 75.131 59.869 z" style="stroke: none; stroke-width: 1; stroke-dasharray: none; stroke-linecap: butt; stroke-linejoin: miter; stroke-miterlimit: 10; fill: rgb(0,0,0); fill-rule: nonzero; opacity: 1;" transform=" matrix(1 0 0 1 0 0) " stroke-linecap="round" />
</g>
</svg>