<svg xmlns="http://www.w3.org/2000/svg" xmlns:xlink="http://www.w3.org/1999/xlink" version="1.1" width="256" height="256" viewBox="0 0 256 256" xml:space="preserve">

<defs>
</defs>
<g style="stroke: none; stroke-width: 0; stroke-dasharray: none; stroke-linecap: butt; stroke-linejoin: miter; stroke-miterlimit: 10; fill: none; fill-rule: nonzero; opacity: 1;" transform="translate(1.4065934065934016 1.4065934065934016) scale(2.81 2.81)" >
	<path d="M 85.009 89.999 c -1.279 0 -2.557 -0.486 -3.53 -1.459 L 63.813 70.874 c -0.391 -0.391 -0.391 -1.024 0 -1.414 l 5.647 -5.647 c 0.391 -0.391 1.024 -0.391 1.414 0 L 88.54 81.479 c 1.947 1.946 1.947 5.113 0 7.061 C 87.566 89.513 86.288 89.999 85.009 89.999 z M 65.935 70.167 l 16.959 16.959 c 1.167 1.167 3.067 1.165 4.232 0 c 1.166 -1.167 1.166 -3.066 0 -4.232 L 70.167 65.935 L 65.935 70.167 z" style="stroke: none; stroke-width: 1; stroke-dasharray: none; stroke-linecap: butt; stroke-linejoin: miter; stroke-miterlimit: 10; fill: rgb(0,0,0); fill-rule: nonzero; opacity: 1;" transform=" matrix(1 0 0 1 0 0) " stroke-linecap="round" />
	<path d="M 36.82 67.01 c -8.064 0 -15.645 -3.14 -21.347 -8.843 c -11.771 -11.771 -11.771 -30.924 0 -42.695 c 11.772 -11.772 30.925 -11.771 42.695 0 l 0 0 c 5.702 5.702 8.843 13.284 8.843 21.347 c 0 8.064 -3.14 15.646 -8.843 21.347 C 52.466 63.87 44.884 67.01 36.82 67.01 z M 36.82 8.644 c -7.219 0 -14.437 2.747 -19.933 8.243 c -10.991 10.991 -10.991 28.875 0 39.866 c 5.324 5.324 12.404 8.257 19.933 8.257 c 7.53 0 14.609 -2.932 19.933 -8.257 S 65.01 44.35 65.01 36.82 c 0 -7.529 -2.932 -14.609 -8.257 -19.933 l 0 0 C 51.258 11.392 44.038 8.644 36.82 8.644 z" style="stroke: none; stroke-width: 1; stroke-dasharray: none; stroke-linecap: butt; stroke-linejoin: miter; stroke-miterlimit: 10; fill: rgb(0,0,0); fill-rule: nonzero; opacity: 1;" transform=" matrix(1 0 0 1 0 0) " stroke-linecap="round" />
	<path d="M 36.839 73.614 c -9.475 0 -18.93 -3.609 -26.067 -10.746 c -14.363 -14.362 -14.363 -37.733 0 -52.095 c 14.362 -14.362 37.733 -14.363 52.095 0 c 13.384 13.384 14.361 34.925 2.393 49.446 l 4.604 4.604 c 0.391 0.391 0.391 1.024 0 1.414 s -1.024 0.391 -1.414 0 l -5.254 -5.254 c -0.371 -0.371 -0.393 -0.966 -0.048 -1.363 c 11.915 -13.732 11.17 -34.568 -1.695 -47.433 c -13.583 -13.583 -35.683 -13.583 -49.266 0 c -13.583 13.583 -13.583 35.683 0 49.266 c 12.867 12.866 33.7 13.61 47.433 1.695 c 0.396 -0.345 0.991 -0.323 1.363 0.048 l 5.254 5.255 c 0.391 0.391 0.391 1.024 0 1.414 s -1.024 0.391 -1.414 0 l -4.604 -4.605 C 53.441 70.847 45.132 73.613 36.839 73.614 z" style="stroke: none; stroke-width: 1; stroke-dasharray: none; stroke-linecap: butt; stroke-linejoin: miter; stroke-miterlimit: 10; fill: rgb(0,0,0); fill-rule: nonzero; opacity: 1;" transform=" matrix(1 0 0 1 0 0) " stroke-linecap="round" />
</g>
</svg>